# xmcd
#
# Track frame offsets: 
#        150
#        18160
#        33582
#        59487
#        81398
#        101917
#        121605
#        135200
#        148852
#        172057
#        191445
#        209048
#
# Disc length: 3021 seconds
#
# Revision: 0
# Processed by: cddbd v1.5.2PL0 Copyright (c) Steve Scherf et al.
# Submitted via: ExactAudioCopyFreeDBPlugin 1.0
#
DISCID=ad0bcb0c
DTITLE=周文馨 - COLOURS
DYEAR=2013
DGENRE=Vocal
TTITLE0=One day in your life
TTITLE1=願
TTITLE2=愛很簡單
TTITLE3=悟
TTITLE4=O Holy Night
TTITLE5=冬天的故事
TTITLE6=One of the ones
TTITLE7=Ain't no sunshine
TTITLE8=就這樣站到明天
TTITLE9=Cruising for bruising
TTITLE10=假如
TTITLE11=卡門
EXTD=
EXTT0=
EXTT1=
EXTT2=
EXTT3=
EXTT4=
EXTT5=
EXTT6=
EXTT7=
EXTT8=
EXTT9=
EXTT10=
EXTT11=
PLAYORDER=
